<mxfile host="app.diagrams.net" modified="2021-02-25T22:16:22.885Z" agent="5.0 (Macintosh)" etag="G3HMC2P5BmbQf1uzNUHC" version="14.4.3" type="github">
  <diagram id="De-sLLBNVC7BS2nRnobJ" name="Page-1">
    <mxGraphModel dx="1773" dy="598" grid="1" gridSize="10" guides="1" tooltips="1" connect="1" arrows="1" fold="1" page="1" pageScale="1" pageWidth="827" pageHeight="1169" math="0" shadow="0">
      <root>
        <mxCell id="0" />
        <mxCell id="1" parent="0" />
        <mxCell id="wHAuHfyx82ygqQOuzajl-8" value="" style="ellipse;shape=cloud;whiteSpace=wrap;html=1;rounded=1;shadow=1;glass=1;sketch=0;strokeWidth=3;fillColor=#f5f5f5;strokeColor=#666666;fontColor=#333333;" vertex="1" parent="1">
          <mxGeometry x="-80" y="40" width="890" height="460" as="geometry" />
        </mxCell>
        <mxCell id="wHAuHfyx82ygqQOuzajl-26" style="edgeStyle=orthogonalEdgeStyle;rounded=1;orthogonalLoop=1;jettySize=auto;html=1;strokeColor=#66B2FF;strokeWidth=2;" edge="1" parent="1" source="wHAuHfyx82ygqQOuzajl-1" target="wHAuHfyx82ygqQOuzajl-3">
          <mxGeometry relative="1" as="geometry" />
        </mxCell>
        <mxCell id="wHAuHfyx82ygqQOuzajl-1" value="&lt;b&gt;home video UI&lt;/b&gt;" style="whiteSpace=wrap;html=1;aspect=fixed;fillColor=#dae8fc;strokeColor=#6c8ebf;rounded=1;shadow=1;sketch=0;glass=1;" vertex="1" parent="1">
          <mxGeometry x="350" y="190" width="80" height="80" as="geometry" />
        </mxCell>
        <mxCell id="wHAuHfyx82ygqQOuzajl-3" value="&lt;b&gt;home video API&lt;/b&gt;" style="whiteSpace=wrap;html=1;aspect=fixed;fillColor=#e1d5e7;strokeColor=#9673a6;rounded=1;shadow=1;sketch=0;glass=1;" vertex="1" parent="1">
          <mxGeometry x="528" y="190" width="80" height="80" as="geometry" />
        </mxCell>
        <mxCell id="wHAuHfyx82ygqQOuzajl-33" style="edgeStyle=orthogonalEdgeStyle;rounded=1;orthogonalLoop=1;jettySize=auto;html=1;strokeColor=#ae4132;strokeWidth=2;fontColor=#7EA6E0;fillColor=#fad9d5;" edge="1" parent="1" source="wHAuHfyx82ygqQOuzajl-4" target="wHAuHfyx82ygqQOuzajl-7">
          <mxGeometry relative="1" as="geometry" />
        </mxCell>
        <mxCell id="wHAuHfyx82ygqQOuzajl-59" style="edgeStyle=orthogonalEdgeStyle;rounded=1;orthogonalLoop=1;jettySize=auto;html=1;strokeColor=#ae4132;strokeWidth=2;fontColor=#7EA6E0;fillColor=#fad9d5;" edge="1" parent="1" source="wHAuHfyx82ygqQOuzajl-4" target="wHAuHfyx82ygqQOuzajl-1">
          <mxGeometry relative="1" as="geometry">
            <Array as="points">
              <mxPoint x="420" y="320" />
            </Array>
          </mxGeometry>
        </mxCell>
        <mxCell id="wHAuHfyx82ygqQOuzajl-60" style="edgeStyle=orthogonalEdgeStyle;rounded=1;orthogonalLoop=1;jettySize=auto;html=1;entryX=0.5;entryY=1;entryDx=0;entryDy=0;strokeColor=#ae4132;strokeWidth=2;fontColor=#7EA6E0;fillColor=#fad9d5;" edge="1" parent="1" source="wHAuHfyx82ygqQOuzajl-4" target="wHAuHfyx82ygqQOuzajl-3">
          <mxGeometry relative="1" as="geometry" />
        </mxCell>
        <mxCell id="wHAuHfyx82ygqQOuzajl-4" value="" style="shape=image;html=1;verticalAlign=top;verticalLabelPosition=bottom;labelBackgroundColor=#ffffff;imageAspect=0;aspect=fixed;image=https://cdn4.iconfinder.com/data/icons/logos-and-brands/512/272_Raspberry_Pi_logo-128.png;" vertex="1" parent="1">
          <mxGeometry x="460" y="290" width="60" height="60" as="geometry" />
        </mxCell>
        <mxCell id="wHAuHfyx82ygqQOuzajl-6" value="" style="image;html=1;image=img/lib/clip_art/networking/Print_Server_Wireless_128x128.png" vertex="1" parent="1">
          <mxGeometry x="440" y="40" width="80" height="80" as="geometry" />
        </mxCell>
        <mxCell id="wHAuHfyx82ygqQOuzajl-7" value="" style="aspect=fixed;html=1;points=[];align=center;image;fontSize=12;image=img/lib/azure2/general/SSD.svg;rounded=1;shadow=1;glass=1;sketch=0;" vertex="1" parent="1">
          <mxGeometry x="452" y="400" width="56" height="50.91" as="geometry" />
        </mxCell>
        <mxCell id="wHAuHfyx82ygqQOuzajl-25" style="edgeStyle=orthogonalEdgeStyle;rounded=1;orthogonalLoop=1;jettySize=auto;html=1;strokeWidth=2;" edge="1" parent="1" source="wHAuHfyx82ygqQOuzajl-17" target="wHAuHfyx82ygqQOuzajl-1">
          <mxGeometry relative="1" as="geometry" />
        </mxCell>
        <mxCell id="wHAuHfyx82ygqQOuzajl-17" value="" style="html=1;verticalLabelPosition=bottom;labelBackgroundColor=#ffffff;verticalAlign=top;shadow=0;dashed=0;strokeWidth=1;shape=mxgraph.ios7.misc.iphone;rounded=1;glass=1;sketch=0;fillColor=#fff2cc;strokeColor=#d6b656;gradientColor=#ffd966;" vertex="1" parent="1">
          <mxGeometry x="200" y="110" width="30" height="60" as="geometry" />
        </mxCell>
        <mxCell id="wHAuHfyx82ygqQOuzajl-24" style="edgeStyle=orthogonalEdgeStyle;rounded=1;orthogonalLoop=1;jettySize=auto;html=1;strokeColor=#56517e;strokeWidth=2;fillColor=#d0cee2;" edge="1" parent="1" source="wHAuHfyx82ygqQOuzajl-18" target="wHAuHfyx82ygqQOuzajl-1">
          <mxGeometry relative="1" as="geometry">
            <Array as="points">
              <mxPoint x="360" y="250" />
              <mxPoint x="360" y="250" />
            </Array>
          </mxGeometry>
        </mxCell>
        <mxCell id="wHAuHfyx82ygqQOuzajl-18" value="" style="image;html=1;image=img/lib/clip_art/computers/Laptop_128x128.png;rounded=1;shadow=1;glass=1;sketch=0;" vertex="1" parent="1">
          <mxGeometry x="87.5" y="240" width="50" height="50" as="geometry" />
        </mxCell>
        <mxCell id="wHAuHfyx82ygqQOuzajl-22" style="edgeStyle=orthogonalEdgeStyle;rounded=1;orthogonalLoop=1;jettySize=auto;html=1;strokeColor=#666666;strokeWidth=2;fillColor=#f5f5f5;gradientColor=#b3b3b3;" edge="1" parent="1" source="wHAuHfyx82ygqQOuzajl-19" target="wHAuHfyx82ygqQOuzajl-1">
          <mxGeometry relative="1" as="geometry" />
        </mxCell>
        <mxCell id="wHAuHfyx82ygqQOuzajl-19" value="" style="pointerEvents=1;shadow=0;dashed=0;html=1;strokeColor=#666666;fillColor=#f5f5f5;labelPosition=center;verticalLabelPosition=bottom;verticalAlign=top;outlineConnect=0;align=center;shape=mxgraph.office.devices.tv;rounded=1;glass=1;sketch=0;gradientColor=#b3b3b3;" vertex="1" parent="1">
          <mxGeometry x="120" y="330" width="70" height="60" as="geometry" />
        </mxCell>
        <mxCell id="wHAuHfyx82ygqQOuzajl-34" value="&lt;font&gt;&lt;b&gt;Files&lt;/b&gt;&lt;/font&gt;" style="text;html=1;strokeColor=none;fillColor=none;align=center;verticalAlign=middle;whiteSpace=wrap;rounded=0;shadow=1;glass=1;sketch=0;labelBackgroundColor=none;fontColor=#007FFF;" vertex="1" parent="1">
          <mxGeometry x="508" y="415.46" width="40" height="20" as="geometry" />
        </mxCell>
        <mxCell id="wHAuHfyx82ygqQOuzajl-42" value="Home Network - 192.168.x.x" style="text;html=1;align=center;verticalAlign=middle;resizable=0;points=[];autosize=1;fontStyle=1;fontColor=#404040;" vertex="1" parent="1">
          <mxGeometry x="452" y="50" width="170" height="20" as="geometry" />
        </mxCell>
        <mxCell id="wHAuHfyx82ygqQOuzajl-44" style="edgeStyle=orthogonalEdgeStyle;rounded=1;orthogonalLoop=1;jettySize=auto;html=1;strokeColor=#d6b656;strokeWidth=2;fontColor=#7EA6E0;gradientColor=#ffd966;fillColor=#fff2cc;" edge="1" parent="1" source="wHAuHfyx82ygqQOuzajl-43" target="wHAuHfyx82ygqQOuzajl-1">
          <mxGeometry relative="1" as="geometry" />
        </mxCell>
        <mxCell id="wHAuHfyx82ygqQOuzajl-43" value="" style="outlineConnect=0;dashed=0;verticalLabelPosition=bottom;verticalAlign=top;align=center;html=1;shape=mxgraph.aws3.fire_tv_stick;fillColor=#ffcd28;gradientColor=#ffa500;rounded=1;shadow=1;glass=1;sketch=0;strokeColor=#d79b00;strokeWidth=3;" vertex="1" parent="1">
          <mxGeometry x="92.5" y="180" width="45" height="23" as="geometry" />
        </mxCell>
      </root>
    </mxGraphModel>
  </diagram>
</mxfile>
